REM DIRINDEX 1\2,1\3
REM DIRNAME cjc103,folder01,folder02
TITLE ""
FILE "Track02.mp3" MP3
  TRACK 01 AUDIO
    TITLE "2:cjc103_002"
    INDEX 01 00:00:00
  TRACK 02 AUDIO
    TITLE "0:"
    INDEX 01 00:47:32
  TRACK 03 AUDIO
    TITLE "3:cjc103_003"
    INDEX 01 00:48:44
  TRACK 04 AUDIO
    TITLE "0:"
    INDEX 01 00:49:61
  TRACK 05 AUDIO
    TITLE "3:cjc103_004"
    INDEX 01 00:50:46
  TRACK 06 AUDIO
    TITLE "0:"
    INDEX 01 00:51:54
  TRACK 07 AUDIO
    TITLE "3:cjc103_005"
    INDEX 01 00:52:49
  TRACK 08 AUDIO
    TITLE "0:"
    INDEX 01 00:53:62
  TRACK 09 AUDIO
    TITLE "3:cjc103_006"
    INDEX 01 00:54:40
  TRACK 10 AUDIO
    TITLE "0:"
    INDEX 01 00:55:53
  TRACK 11 AUDIO
    TITLE "3:cjc103_007"
    INDEX 01 00:56:35
  TRACK 12 AUDIO
    TITLE "0:"
    INDEX 01 00:57:46
  TRACK 13 AUDIO
    TITLE "3:cjc103_008"
    INDEX 01 00:58:48
  TRACK 14 AUDIO
    TITLE "0:"
    INDEX 01 00:59:67
  TRACK 15 AUDIO
    TITLE "2:cjc103_009"
    INDEX 01 01:00:74
  TRACK 16 AUDIO
    TITLE "0:"
    INDEX 01 01:06:02
  TRACK 17 AUDIO
    TITLE "3:cjc103_010"
    INDEX 01 01:06:43
  TRACK 18 AUDIO
    TITLE "0:"
    INDEX 01 01:07:39
  TRACK 19 AUDIO
    TITLE "2:cjc103_011"
    INDEX 01 01:09:50
  TRACK 20 AUDIO
    TITLE "0:"
    INDEX 01 01:12:07
  TRACK 21 AUDIO
    TITLE "3:cjc103_012"
    INDEX 01 01:12:73
  TRACK 22 AUDIO
    TITLE "0:"
    INDEX 01 01:14:23
  TRACK 23 AUDIO
    TITLE "3:cjc103_013"
    INDEX 01 01:15:15
  TRACK 24 AUDIO
    TITLE "0:"
    INDEX 01 01:16:30
  TRACK 25 AUDIO
    TITLE "3:cjc103_014"
    INDEX 01 01:17:30
  TRACK 26 AUDIO
    TITLE "0:"
    INDEX 01 01:18:49
  TRACK 27 AUDIO
    TITLE "3:cjc103_015"
    INDEX 01 01:19:44
  TRACK 28 AUDIO
    TITLE "0:"
    INDEX 01 01:20:63
  TRACK 29 AUDIO
    TITLE "3:cjc103_016"
    INDEX 01 01:21:65
  TRACK 30 AUDIO
    TITLE "0:"
    INDEX 01 01:23:09
  TRACK 31 AUDIO
    TITLE "3:cjc103_017"
    INDEX 01 01:23:67
  TRACK 32 AUDIO
    TITLE "0:"
    INDEX 01 01:25:33
  TRACK 33 AUDIO
    TITLE "2:cjc103_018"
    INDEX 01 01:27:51
  TRACK 34 AUDIO
    TITLE "0:"
    INDEX 01 01:31:57
  TRACK 35 AUDIO
    TITLE "3:cjc103_019"
    INDEX 01 01:33:09
  TRACK 36 AUDIO
    TITLE "0:"
    INDEX 01 01:34:34
  TRACK 37 AUDIO
    TITLE "3:cjc103_020"
    INDEX 01 01:35:29
  TRACK 38 AUDIO
    TITLE "0:"
    INDEX 01 01:37:01
  TRACK 39 AUDIO
    TITLE "3:cjc103_021"
    INDEX 01 01:37:38
  TRACK 40 AUDIO
    TITLE "0:"
    INDEX 01 01:38:71
  TRACK 41 AUDIO
    TITLE "3:cjc103_022"
    INDEX 01 01:39:55
  TRACK 42 AUDIO
    TITLE "0:"
    INDEX 01 01:41:12
  TRACK 43 AUDIO
    TITLE "3:cjc103_023"
    INDEX 01 01:42:06
  TRACK 44 AUDIO
    TITLE "0:"
    INDEX 01 01:43:29
  TRACK 45 AUDIO
    TITLE "3:cjc103_024"
    INDEX 01 01:44:28
  TRACK 46 AUDIO
    TITLE "0:"
    INDEX 01 01:45:49
  TRACK 47 AUDIO
    TITLE "2:cjc103_025"
    INDEX 01 01:47:03
  TRACK 48 AUDIO
    TITLE "0:"
    INDEX 01 01:52:32
  TRACK 49 AUDIO
    TITLE "3:cjc103_026"
    INDEX 01 01:53:49
  TRACK 50 AUDIO
    TITLE "0:"
    INDEX 01 01:54:58
  TRACK 51 AUDIO
    TITLE "3:cjc103_027"
    INDEX 01 01:56:08
  TRACK 52 AUDIO
    TITLE "0:"
    INDEX 01 01:57:25
  TRACK 53 AUDIO
    TITLE "3:cjc103_028"
    INDEX 01 01:58:54
  TRACK 54 AUDIO
    TITLE "0:"
    INDEX 01 01:59:61
  TRACK 55 AUDIO
    TITLE "2:cjc103_029"
    INDEX 01 02:02:07
  TRACK 56 AUDIO
    TITLE "0:"
    INDEX 01 02:13:30
  TRACK 57 AUDIO
    TITLE "3:cjc103_030"
    INDEX 01 02:15:00
  TRACK 58 AUDIO
    TITLE "0:"
    INDEX 01 02:16:23
  TRACK 59 AUDIO
    TITLE "3:cjc103_031"
    INDEX 01 02:16:70
  TRACK 60 AUDIO
    TITLE "0:"
    INDEX 01 02:18:10
  TRACK 61 AUDIO
    TITLE "3:cjc103_032"
    INDEX 01 02:18:51
  TRACK 62 AUDIO
    TITLE "0:"
    INDEX 01 02:20:05
  TRACK 63 AUDIO
    TITLE "3:cjc103_033"
    INDEX 01 02:20:71
  TRACK 64 AUDIO
    TITLE "0:"
    INDEX 01 02:22:27
  TRACK 65 AUDIO
    TITLE "3:cjc103_034"
    INDEX 01 02:23:25
  TRACK 66 AUDIO
    TITLE "0:"
    INDEX 01 02:24:57
  TRACK 67 AUDIO
    TITLE "3:cjc103_035"
    INDEX 01 02:25:49
  TRACK 68 AUDIO
    TITLE "0:"
    INDEX 01 02:27:05
  TRACK 69 AUDIO
    TITLE "3:cjc103_036"
    INDEX 01 02:27:73
  TRACK 70 AUDIO
    TITLE "0:"
    INDEX 01 02:29:19
  TRACK 71 AUDIO
    TITLE "3:cjc103_037"
    INDEX 01 02:30:13
  TRACK 72 AUDIO
    TITLE "0:"
    INDEX 01 02:31:42
  TRACK 73 AUDIO
    TITLE "3:cjc103_038"
    INDEX 01 02:32:37
  TRACK 74 AUDIO
    TITLE "0:"
    INDEX 01 02:34:09
  TRACK 75 AUDIO
    TITLE "3:cjc103_039"
    INDEX 01 02:35:06
  TRACK 76 AUDIO
    TITLE "0:"
    INDEX 01 02:36:45
  TRACK 77 AUDIO
    TITLE "3:cjc103_040"
    INDEX 01 02:37:44
  TRACK 78 AUDIO
    TITLE "0:"
    INDEX 01 02:39:04
  TRACK 79 AUDIO
    TITLE "3:cjc103_041"
    INDEX 01 02:40:07
  TRACK 80 AUDIO
    TITLE "0:"
    INDEX 01 02:41:34
  TRACK 81 AUDIO
    TITLE "3:cjc103_042"
    INDEX 01 02:42:32
  TRACK 82 AUDIO
    TITLE "0:"
    INDEX 01 02:43:49
  TRACK 83 AUDIO
    TITLE "3:cjc103_043"
    INDEX 01 02:44:46
  TRACK 84 AUDIO
    TITLE "0:"
    INDEX 01 02:45:65
  TRACK 85 AUDIO
    TITLE "3:cjc103_044"
    INDEX 01 02:46:57
  TRACK 86 AUDIO
    TITLE "0:"
    INDEX 01 02:48:01
  TRACK 87 AUDIO
    TITLE "3:cjc103_045"
    INDEX 01 02:49:08
  TRACK 88 AUDIO
    TITLE "0:"
    INDEX 01 02:50:53
  TRACK 89 AUDIO
    TITLE "3:cjc103_046"
    INDEX 01 02:51:40
  TRACK 90 AUDIO
    TITLE "0:"
    INDEX 01 02:52:58
  TRACK 91 AUDIO
    TITLE "3:cjc103_047"
    INDEX 01 02:53:71
  TRACK 92 AUDIO
    TITLE "0:"
    INDEX 01 02:55:23
